<svg width="16" height="17" viewBox="0 0 16 17" fill="none" xmlns="http://www.w3.org/2000/svg">
<path d="M3.3125 4.87502V1.12502C3.3125 0.876377 3.41127 0.63792 3.58709 0.462105C3.7629 0.286289 4.00136 0.187517 4.25 0.187517C4.49864 0.187517 4.7371 0.286289 4.91291 0.462105C5.08873 0.63792 5.1875 0.876377 5.1875 1.12502V4.87502C5.1875 5.12366 5.08873 5.36211 4.91291 5.53793C4.7371 5.71375 4.49864 5.81252 4.25 5.81252C4.00136 5.81252 3.7629 5.71375 3.58709 5.53793C3.41127 5.36211 3.3125 5.12366 3.3125 4.87502ZM15.1875 1.12502V15.5C15.1875 15.7487 15.0887 15.9871 14.9129 16.1629C14.7371 16.3387 14.4986 16.4375 14.25 16.4375C14.0014 16.4375 13.7629 16.3387 13.5871 16.1629C13.4113 15.9871 13.3125 15.7487 13.3125 15.5V12.0625H9.875C9.62636 12.0625 9.3879 11.9637 9.21209 11.7879C9.03627 11.6121 8.9375 11.3737 8.9375 11.125C8.96679 9.60318 9.15876 8.08884 9.51016 6.60783C10.2984 3.34533 11.8094 1.1508 13.8805 0.265642C14.0229 0.204556 14.1782 0.179731 14.3326 0.193387C14.487 0.207043 14.6356 0.258755 14.7651 0.343895C14.8945 0.429036 15.0009 0.544949 15.0746 0.681264C15.1484 0.817579 15.1871 0.970044 15.1875 1.12502ZM13.3125 2.91564C12.2656 4.01564 11.6719 5.65627 11.3414 7.01408C11.0941 8.05706 10.9316 9.11833 10.8555 10.1875H13.3125V2.91564ZM8 1.04689C7.97928 0.798252 7.86064 0.568026 7.67017 0.406862C7.4797 0.245698 7.23302 0.166797 6.98438 0.187517C6.73573 0.208237 6.50551 0.326881 6.34434 0.517347C6.18318 0.707814 6.10428 0.954502 6.125 1.20314L6.4375 4.91095C6.4375 5.49112 6.20703 6.04751 5.7968 6.45775C5.38656 6.86799 4.83016 7.09845 4.25 7.09845C3.66984 7.09845 3.11344 6.86799 2.7032 6.45775C2.29297 6.04751 2.0625 5.49112 2.0625 4.91095L2.375 1.20314C2.38526 1.08003 2.37117 0.956098 2.33353 0.838429C2.2959 0.72076 2.23546 0.611657 2.15566 0.517347C2.07585 0.423038 1.97826 0.34537 1.86844 0.288777C1.75863 0.232185 1.63874 0.197777 1.51562 0.187517C1.39251 0.177258 1.26858 0.191348 1.15091 0.228983C1.03324 0.266618 0.92414 0.327061 0.82983 0.406862C0.735521 0.486662 0.657852 0.584257 0.60126 0.694073C0.544668 0.80389 0.51026 0.923778 0.5 1.04689L0.1875 4.79689C0.1875 4.82345 0.1875 4.84924 0.1875 4.87502C0.188999 5.789 0.498073 6.67588 1.06495 7.39284C1.63182 8.10979 2.4235 8.61509 3.3125 8.82736V15.5C3.3125 15.7487 3.41127 15.9871 3.58709 16.1629C3.7629 16.3387 4.00136 16.4375 4.25 16.4375C4.49864 16.4375 4.7371 16.3387 4.91291 16.1629C5.08873 15.9871 5.1875 15.7487 5.1875 15.5V8.82736C6.0765 8.61509 6.86818 8.10979 7.43505 7.39284C8.00193 6.67588 8.311 5.789 8.3125 4.87502C8.3125 4.84924 8.3125 4.82345 8.3125 4.79689L8 1.04689Z" fill="#B9FD02"/>
</svg>
