<svg width="18" height="14" viewBox="0 0 18 14" fill="none" xmlns="http://www.w3.org/2000/svg">
<g clip-path="url(#clip0_235_5801)">
<path d="M9.42674 13.116C8.89341 12.636 8.89341 11.868 9.42674 11.388L12.4134 8.69998L2.28008 8.69998C1.53341 8.69998 1.00008 8.12398 1.00008 7.54798C1.00008 6.97198 1.64008 6.29998 2.38675 6.29998L12.4134 6.29998L9.42675 3.51598C8.89341 3.03598 8.89341 2.26798 9.42675 1.78798C9.96008 1.30798 10.8134 1.30798 11.3467 1.78798L16.6801 6.58798C17.2134 7.06798 17.2134 7.83598 16.6801 8.31598L11.3467 13.116C10.8134 13.596 9.96008 13.596 9.42674 13.116Z" fill="#111518"/>
</g>
<defs>
<clipPath id="clip0_235_5801">
<rect width="14" height="18" fill="white" transform="translate(18) rotate(90)"/>
</clipPath>
</defs>
</svg>
