<svg width="18" height="18" viewBox="0 0 18 18" fill="none" xmlns="http://www.w3.org/2000/svg">
<path d="M9 1.40625C7.4981 1.40625 6.02993 1.85162 4.78114 2.68603C3.53236 3.52044 2.55905 4.70642 1.98429 6.094C1.40954 7.48157 1.25916 9.00842 1.55217 10.4815C1.84517 11.9545 2.56841 13.3076 3.63041 14.3696C4.69242 15.4316 6.04549 16.1548 7.51854 16.4478C8.99158 16.7408 10.5184 16.5905 11.906 16.0157C13.2936 15.441 14.4796 14.4676 15.314 13.2189C16.1484 11.9701 16.5938 10.5019 16.5938 9C16.5915 6.9867 15.7907 5.0565 14.3671 3.63287C12.9435 2.20925 11.0133 1.40848 9 1.40625ZM14.3438 6.48633L12.7969 6.98906L9.84375 4.90641V3.15492C10.8104 3.29601 11.7271 3.67402 12.5123 4.25527C13.2974 4.83653 13.9266 5.60298 14.3438 6.48633ZM7.34766 11.25L6.34289 8.24977L9 6.37594L11.6571 8.24977L10.6523 11.25H7.34766ZM8.15625 3.15492V4.90641L5.20313 6.98906L3.65625 6.48633C4.07339 5.60298 4.70257 4.83653 5.48772 4.25527C6.27287 3.67402 7.1896 3.29601 8.15625 3.15492ZM3.09375 9C3.0943 8.69888 3.11781 8.39825 3.16407 8.1007L4.68071 8.59289L5.80571 11.9496L4.87688 13.223C4.31234 12.6741 3.86365 12.0175 3.55737 11.2922C3.25108 10.5668 3.09344 9.78738 3.09375 9ZM6.23883 14.2193L7.17188 12.9375H10.8281L11.7598 14.2193C10.9093 14.6704 9.96128 14.9062 8.9986 14.9062C8.03591 14.9062 7.08789 14.6704 6.23743 14.2193H6.23883ZM13.1231 13.223L12.1978 11.9531L13.3228 8.59641L14.8395 8.10422C14.9816 9.03287 14.9001 9.98203 14.6019 10.8729C14.3036 11.7638 13.7972 12.5706 13.1245 13.2265L13.1231 13.223Z" fill="white"/>
</svg>
