<svg width="12" height="13" viewBox="0 0 12 13" fill="none" xmlns="http://www.w3.org/2000/svg">
<path d="M10.8 0.962963H9.6V0.722222C9.6 0.530677 9.52414 0.346977 9.38912 0.211534C9.25409 0.0760911 9.07096 0 8.88 0C8.68904 0 8.50591 0.0760911 8.37088 0.211534C8.23586 0.346977 8.16 0.530677 8.16 0.722222V0.962963H3.84V0.722222C3.84 0.530677 3.76414 0.346977 3.62912 0.211534C3.49409 0.0760911 3.31096 0 3.12 0C2.92904 0 2.74591 0.0760911 2.61088 0.211534C2.47586 0.346977 2.4 0.530677 2.4 0.722222V0.962963H1.2C0.88174 0.962963 0.576515 1.08978 0.351472 1.31552C0.126428 1.54126 0 1.84742 0 2.16667V11.7963C0 12.1155 0.126428 12.4217 0.351472 12.6474C0.576515 12.8732 0.88174 13 1.2 13H10.8C11.1183 13 11.4235 12.8732 11.6485 12.6474C11.8736 12.4217 12 12.1155 12 11.7963V2.16667C12 1.84742 11.8736 1.54126 11.6485 1.31552C11.4235 1.08978 11.1183 0.962963 10.8 0.962963ZM2.4 2.40741C2.4 2.59895 2.47586 2.78265 2.61088 2.9181C2.74591 3.05354 2.92904 3.12963 3.12 3.12963C3.31096 3.12963 3.49409 3.05354 3.62912 2.9181C3.76414 2.78265 3.84 2.59895 3.84 2.40741H8.16C8.16 2.59895 8.23586 2.78265 8.37088 2.9181C8.50591 3.05354 8.68904 3.12963 8.88 3.12963C9.07096 3.12963 9.25409 3.05354 9.38912 2.9181C9.52414 2.78265 9.6 2.59895 9.6 2.40741H10.56V3.85185H1.44V2.40741H2.4ZM1.44 11.5556V5.2963H10.56V11.5556H1.44Z" fill="#B9FD02"/>
</svg>
