<svg width="18" height="18" viewBox="0 0 18 18" fill="none" xmlns="http://www.w3.org/2000/svg">
<path d="M16.875 7.59375H16.2984L14.4197 3.36656C14.3092 3.11791 14.129 2.90665 13.9009 2.75838C13.6727 2.61011 13.4065 2.53122 13.1344 2.53125H4.86562C4.59354 2.53122 4.32729 2.61011 4.09915 2.75838C3.87101 2.90665 3.69078 3.11791 3.58031 3.36656L1.70156 7.59375H1.125C0.901224 7.59375 0.686612 7.68264 0.528379 7.84088C0.370145 7.99911 0.28125 8.21372 0.28125 8.4375C0.28125 8.66128 0.370145 8.87589 0.528379 9.03412C0.686612 9.19235 0.901224 9.28125 1.125 9.28125H1.40625V14.625C1.40625 14.998 1.55441 15.3556 1.81813 15.6194C2.08185 15.8831 2.43954 16.0312 2.8125 16.0312H4.5C4.87296 16.0312 5.23065 15.8831 5.49437 15.6194C5.75809 15.3556 5.90625 14.998 5.90625 14.625V13.2188H12.0938V14.625C12.0938 14.998 12.2419 15.3556 12.5056 15.6194C12.7694 15.8831 13.127 16.0312 13.5 16.0312H15.1875C15.5605 16.0312 15.9181 15.8831 16.1819 15.6194C16.4456 15.3556 16.5938 14.998 16.5938 14.625V9.28125H16.875C17.0988 9.28125 17.3134 9.19235 17.4716 9.03412C17.6299 8.87589 17.7188 8.66128 17.7188 8.4375C17.7188 8.21372 17.6299 7.99911 17.4716 7.84088C17.3134 7.68264 17.0988 7.59375 16.875 7.59375ZM5.04844 4.21875H12.9516L14.4513 7.59375H3.54867L5.04844 4.21875ZM4.21875 14.3438H3.09375V13.2188H4.21875V14.3438ZM13.7812 14.3438V13.2188H14.9062V14.3438H13.7812ZM14.9062 11.5312H3.09375V9.28125H14.9062V11.5312Z" fill="#B9FD02"/>
</svg>
