<svg width="12" height="15" viewBox="0 0 12 15" fill="none" xmlns="http://www.w3.org/2000/svg">
<path d="M6 2.75C4.81331 2.75 3.65328 3.10189 2.66658 3.76118C1.67989 4.42047 0.910851 5.35754 0.456726 6.4539C0.00259972 7.55026 -0.11622 8.75666 0.115291 9.92054C0.346802 11.0844 0.918247 12.1535 1.75736 12.9926C2.59648 13.8318 3.66558 14.4032 4.82946 14.6347C5.99335 14.8662 7.19975 14.7474 8.2961 14.2933C9.39246 13.8392 10.3295 13.0701 10.9888 12.0834C11.6481 11.0967 12 9.93669 12 8.75C11.9982 7.15926 11.3655 5.63419 10.2406 4.50937C9.11581 3.38454 7.59074 2.75182 6 2.75ZM6 13.25C5.10999 13.25 4.23996 12.9861 3.49994 12.4916C2.75992 11.9971 2.18314 11.2943 1.84254 10.4721C1.50195 9.64981 1.41284 8.74501 1.58647 7.87209C1.7601 6.99918 2.18869 6.19736 2.81802 5.56802C3.44736 4.93868 4.24918 4.5101 5.1221 4.33647C5.99501 4.16283 6.89981 4.25195 7.72208 4.59254C8.54435 4.93314 9.24715 5.50991 9.74162 6.24993C10.2361 6.98995 10.5 7.85998 10.5 8.75C10.4987 9.94307 10.0241 11.0869 9.18052 11.9305C8.33689 12.7741 7.19307 13.2487 6 13.25ZM8.28063 6.21937C8.35055 6.28905 8.40603 6.37185 8.44388 6.46301C8.48173 6.55417 8.50122 6.65191 8.50122 6.75062C8.50122 6.84934 8.48173 6.94707 8.44388 7.03824C8.40603 7.1294 8.35055 7.2122 8.28063 7.28187L6.53063 9.03187C6.38973 9.17277 6.19864 9.25192 5.99938 9.25192C5.80012 9.25192 5.60902 9.17277 5.46813 9.03187C5.32723 8.89098 5.24808 8.69988 5.24808 8.50062C5.24808 8.30137 5.32723 8.11027 5.46813 7.96937L7.21813 6.21937C7.28781 6.14945 7.3706 6.09398 7.46176 6.05612C7.55293 6.01827 7.65067 5.99878 7.74938 5.99878C7.84809 5.99878 7.94583 6.01827 8.03699 6.05612C8.12816 6.09398 8.21095 6.14945 8.28063 6.21937ZM3.75 1C3.75 0.801088 3.82902 0.610322 3.96967 0.46967C4.11032 0.329018 4.30109 0.25 4.5 0.25H7.5C7.69892 0.25 7.88968 0.329018 8.03033 0.46967C8.17098 0.610322 8.25 0.801088 8.25 1C8.25 1.19891 8.17098 1.38968 8.03033 1.53033C7.88968 1.67098 7.69892 1.75 7.5 1.75H4.5C4.30109 1.75 4.11032 1.67098 3.96967 1.53033C3.82902 1.38968 3.75 1.19891 3.75 1Z" fill="#B9FD02"/>
</svg>
