<svg width="16" height="16" viewBox="0 0 16 16" fill="none" xmlns="http://www.w3.org/2000/svg">
<path d="M12.5 4.625C12.5 4.84878 12.4111 5.06339 12.2529 5.22162C12.0946 5.37986 11.88 5.46875 11.6562 5.46875H10.5312C10.3075 5.46875 10.0929 5.37986 9.93463 5.22162C9.7764 5.06339 9.6875 4.84878 9.6875 4.625C9.6875 4.40122 9.7764 4.18661 9.93463 4.02838C10.0929 3.87014 10.3075 3.78125 10.5312 3.78125H11.6562C11.88 3.78125 12.0946 3.87014 12.2529 4.02838C12.4111 4.18661 12.5 4.40122 12.5 4.625ZM11.6562 6.59375H10.5312C10.3075 6.59375 10.0929 6.68264 9.93463 6.84088C9.7764 6.99911 9.6875 7.21372 9.6875 7.4375C9.6875 7.66128 9.7764 7.87589 9.93463 8.03412C10.0929 8.19235 10.3075 8.28125 10.5312 8.28125H11.6562C11.88 8.28125 12.0946 8.19235 12.2529 8.03412C12.4111 7.87589 12.5 7.66128 12.5 7.4375C12.5 7.21372 12.4111 6.99911 12.2529 6.84088C12.0946 6.68264 11.88 6.59375 11.6562 6.59375ZM4.34375 5.46875H5.46875C5.69253 5.46875 5.90714 5.37986 6.06537 5.22162C6.22361 5.06339 6.3125 4.84878 6.3125 4.625C6.3125 4.40122 6.22361 4.18661 6.06537 4.02838C5.90714 3.87014 5.69253 3.78125 5.46875 3.78125H4.34375C4.11997 3.78125 3.90536 3.87014 3.74713 4.02838C3.58889 4.18661 3.5 4.40122 3.5 4.625C3.5 4.84878 3.58889 5.06339 3.74713 5.22162C3.90536 5.37986 4.11997 5.46875 4.34375 5.46875ZM5.46875 6.59375H4.34375C4.11997 6.59375 3.90536 6.68264 3.74713 6.84088C3.58889 6.99911 3.5 7.21372 3.5 7.4375C3.5 7.66128 3.58889 7.87589 3.74713 8.03412C3.90536 8.19235 4.11997 8.28125 4.34375 8.28125H5.46875C5.69253 8.28125 5.90714 8.19235 6.06537 8.03412C6.22361 7.87589 6.3125 7.66128 6.3125 7.4375C6.3125 7.21372 6.22361 6.99911 6.06537 6.84088C5.90714 6.68264 5.69253 6.59375 5.46875 6.59375ZM15.0312 2.375V14.75C15.0312 14.9738 14.9424 15.1884 14.7841 15.3466C14.6259 15.5049 14.4113 15.5938 14.1875 15.5938C13.9637 15.5938 13.7491 15.5049 13.5909 15.3466C13.4326 15.1884 13.3438 14.9738 13.3438 14.75V13.9062H8.84375V14.75C8.84375 14.9738 8.75485 15.1884 8.59662 15.3466C8.43839 15.5049 8.22378 15.5938 8 15.5938C7.77622 15.5938 7.56161 15.5049 7.40338 15.3466C7.24514 15.1884 7.15625 14.9738 7.15625 14.75V13.9062H2.65625V14.75C2.65625 14.9738 2.56736 15.1884 2.40912 15.3466C2.25089 15.5049 2.03628 15.5938 1.8125 15.5938C1.58872 15.5938 1.37411 15.5049 1.21588 15.3466C1.05764 15.1884 0.96875 14.9738 0.96875 14.75V2.375C0.96875 2.00204 1.11691 1.64435 1.38063 1.38063C1.64435 1.11691 2.00204 0.96875 2.375 0.96875H13.625C13.998 0.96875 14.3556 1.11691 14.6194 1.38063C14.8831 1.64435 15.0312 2.00204 15.0312 2.375ZM7.15625 12.2188V2.65625H2.65625V12.2188H7.15625ZM8.84375 12.2188H13.3438V2.65625H8.84375V12.2188Z" fill="#B9FD02"/>
</svg>
