<svg width="34" height="34" viewBox="0 0 34 34" fill="none" xmlns="http://www.w3.org/2000/svg">
<rect width="34" height="34" rx="17" fill="#B9FD02"/>
<path fill-rule="evenodd" clip-rule="evenodd" d="M16.4167 21.6666C16.4167 21.3444 16.6779 21.0833 17.0001 21.0833H22.2501C22.5722 21.0833 22.8334 21.3444 22.8334 21.6666C22.8334 21.9888 22.5722 22.2499 22.2501 22.2499H17.0001C16.6779 22.2499 16.4167 21.9888 16.4167 21.6666Z" fill="#040404"/>
<path fill-rule="evenodd" clip-rule="evenodd" d="M20.5001 12.2626C20.3266 12.2626 20.1602 12.3315 20.0376 12.4542L12.8602 19.6316L12.5518 20.865L13.7852 20.5567L20.9626 13.3792C21.0234 13.3185 21.0715 13.2464 21.1044 13.167C21.1373 13.0877 21.1542 13.0026 21.1542 12.9167C21.1542 12.8308 21.1373 12.7458 21.1044 12.6664C21.0715 12.587 21.0234 12.5149 20.9626 12.4542C20.9019 12.3935 20.8298 12.3453 20.7504 12.3124C20.671 12.2795 20.586 12.2626 20.5001 12.2626ZM19.2126 11.6292C19.5541 11.2878 20.0172 11.0959 20.5001 11.0959C20.7392 11.0959 20.976 11.143 21.1969 11.2345C21.4178 11.326 21.6185 11.4602 21.7876 11.6292C21.9566 11.7983 22.0908 11.999 22.1823 12.2199C22.2738 12.4408 22.3209 12.6776 22.3209 12.9167C22.3209 13.1558 22.2738 13.3926 22.1823 13.6135C22.0908 13.8344 21.9566 14.0351 21.7876 14.2042L14.4959 21.4959C14.4211 21.5706 14.3275 21.6237 14.2249 21.6493L11.8916 22.2326C11.6928 22.2823 11.4825 22.2241 11.3376 22.0792C11.1927 21.9343 11.1345 21.724 11.1842 21.5252L11.7675 19.1919C11.7932 19.0893 11.8462 18.9957 11.9209 18.9209L19.2126 11.6292Z" fill="#040404"/>
</svg>
