<svg width="17" height="20" viewBox="0 0 17 20" fill="none" xmlns="http://www.w3.org/2000/svg">
<path d="M16.7656 9.5625V18.1875C16.7656 18.6641 16.5763 19.1211 16.2393 19.4581C15.9024 19.7951 15.4453 19.9844 14.9688 19.9844H2.03125C1.55469 19.9844 1.09765 19.7951 0.760668 19.4581C0.423688 19.1211 0.234375 18.6641 0.234375 18.1875V9.5625C0.234375 9.08593 0.423688 8.62889 0.760668 8.29191C1.09765 7.95493 1.55469 7.76562 2.03125 7.76562H4.1875C4.47344 7.76562 4.74766 7.87921 4.94985 8.0814C5.15204 8.28358 5.26562 8.55781 5.26562 8.84375C5.26562 9.12968 5.15204 9.40391 4.94985 9.6061C4.74766 9.80828 4.47344 9.92187 4.1875 9.92187H2.39062V17.8281H14.6094V9.92187H12.8125C12.5266 9.92187 12.2523 9.80828 12.0502 9.6061C11.848 9.40391 11.7344 9.12968 11.7344 8.84375C11.7344 8.55781 11.848 8.28358 12.0502 8.0814C12.2523 7.87921 12.5266 7.76562 12.8125 7.76562H14.9688C15.4453 7.76562 15.9024 7.95493 16.2393 8.29191C16.5763 8.62889 16.7656 9.08593 16.7656 9.5625ZM5.66902 6.01277L7.42188 4.26171V11.7187C7.42188 12.0047 7.53546 12.2789 7.73765 12.4811C7.93984 12.6833 8.21406 12.7969 8.5 12.7969C8.78594 12.7969 9.06016 12.6833 9.26235 12.4811C9.46454 12.2789 9.57812 12.0047 9.57812 11.7187V4.26171L11.331 6.01546C11.4313 6.11575 11.5503 6.1953 11.6814 6.24958C11.8124 6.30385 11.9528 6.33179 12.0946 6.33179C12.2365 6.33179 12.3769 6.30385 12.5079 6.24958C12.639 6.1953 12.758 6.11575 12.8583 6.01546C12.9586 5.91518 13.0382 5.79612 13.0924 5.66509C13.1467 5.53406 13.1746 5.39362 13.1746 5.25179C13.1746 5.10996 13.1467 4.96953 13.0924 4.8385C13.0382 4.70747 12.9586 4.58841 12.8583 4.48812L9.26457 0.894371C9.16441 0.793861 9.04539 0.714112 8.91434 0.659696C8.78329 0.605281 8.64279 0.577271 8.5009 0.577271C8.359 0.577271 8.2185 0.605281 8.08745 0.659696C7.95641 0.714112 7.83739 0.793861 7.73723 0.894371L4.14348 4.48812C4.04319 4.58841 3.96364 4.70747 3.90936 4.8385C3.85509 4.96953 3.82715 5.10996 3.82715 5.25179C3.82715 5.53822 3.94094 5.81293 4.14348 6.01546C4.34601 6.218 4.62072 6.33179 4.90715 6.33179C5.19358 6.33179 5.46828 6.218 5.67082 6.01546L5.66902 6.01277Z" fill="#040404"/>
</svg>
