<svg width="23" height="23" viewBox="0 0 23 23" fill="none" xmlns="http://www.w3.org/2000/svg">
<path fill-rule="evenodd" clip-rule="evenodd" d="M10.9371 1.60978C11.2682 1.35232 11.7317 1.35232 12.0627 1.60978L20.3127 8.02645C20.536 8.20012 20.6666 8.46715 20.6666 8.75002V18.8334C20.6666 19.5627 20.3769 20.2622 19.8611 20.7779C19.3454 21.2936 18.6459 21.5834 17.9166 21.5834H5.08325C4.35391 21.5834 3.65443 21.2936 3.13871 20.7779C2.62298 20.2622 2.33325 19.5627 2.33325 18.8334V8.75002C2.33325 8.46715 2.46385 8.20012 2.68714 8.02645L10.9371 1.60978ZM4.16659 9.19835V18.8334C4.16659 19.0765 4.26316 19.3096 4.43507 19.4815C4.60698 19.6534 4.84014 19.75 5.08325 19.75H17.9166C18.1597 19.75 18.3929 19.6534 18.5648 19.4815C18.7367 19.3096 18.8333 19.0765 18.8333 18.8334V9.19835L11.4999 3.49464L4.16659 9.19835Z" fill="#B9FD02"/>
<path fill-rule="evenodd" clip-rule="evenodd" d="M13.0415 12.3462C15.4103 11.0723 18.1768 11.1236 19.9886 11.5262L19.5114 13.6738C18.0232 13.3431 15.8397 13.3393 14.0835 14.2838C12.4318 15.1721 10.95 17.0094 10.95 20.85H8.75C8.75 16.3306 10.5682 13.6763 13.0415 12.3462Z" fill="#B9FD02"/>
</svg>
