<svg width="14" height="18" viewBox="0 0 14 18" fill="none" xmlns="http://www.w3.org/2000/svg">
<path d="M10.6563 16.3125C10.6563 16.5363 10.5674 16.7509 10.4092 16.9091C10.251 17.0673 10.0364 17.1562 9.81259 17.1562H4.18759C3.96382 17.1562 3.74921 17.0673 3.59097 16.9091C3.43274 16.7509 3.34384 16.5363 3.34384 16.3125C3.34384 16.0887 3.43274 15.8741 3.59097 15.7159C3.74921 15.5576 3.96382 15.4687 4.18759 15.4687H9.81259C10.0364 15.4687 10.251 15.5576 10.4092 15.7159C10.5674 15.8741 10.6563 16.0887 10.6563 16.3125ZM13.4688 7.31247C13.4661 8.31899 13.2296 9.31112 12.7782 10.2107C12.3267 11.1103 11.6726 11.8928 10.8673 12.4966C10.8005 12.5488 10.7467 12.6158 10.7101 12.6923C10.6735 12.7688 10.6551 12.8527 10.6563 12.9375C10.6563 13.1221 10.62 13.305 10.5493 13.4756C10.4786 13.6462 10.375 13.8013 10.2445 13.9318C10.1139 14.0624 9.95886 14.166 9.78824 14.2367C9.61763 14.3074 9.43477 14.3437 9.2501 14.3437H4.75009C4.56542 14.3437 4.38256 14.3074 4.21195 14.2367C4.04133 14.166 3.88631 14.0624 3.75573 13.9318C3.62514 13.8013 3.52156 13.6462 3.45089 13.4756C3.38022 13.305 3.34384 13.1221 3.34384 12.9375V12.9213C3.34257 12.8358 3.32123 12.7518 3.28154 12.6761C3.24184 12.6004 3.18491 12.535 3.11533 12.4854C2.31569 11.8892 1.66588 11.1149 1.21738 10.224C0.76887 9.3331 0.53399 8.34999 0.531345 7.35255C0.512361 3.84537 3.34384 0.9281 6.8447 0.843725C7.70718 0.823001 8.56509 0.975008 9.36794 1.2908C10.1708 1.6066 10.9024 2.0798 11.5196 2.68255C12.1368 3.28531 12.6272 4.00544 12.962 4.80057C13.2968 5.59569 13.4691 6.44975 13.4688 7.31247ZM11.7813 7.31247C11.7815 6.67471 11.6541 6.04335 11.4066 5.45557C11.1591 4.86779 10.7965 4.33546 10.3402 3.88993C9.88384 3.4444 9.34298 3.09467 8.74943 2.86133C8.15589 2.62799 7.52166 2.51575 6.88408 2.53122C4.29728 2.5938 2.20478 4.75029 2.21884 7.3399C2.22043 8.07776 2.39397 8.80509 2.72571 9.46417C3.05745 10.1233 3.53824 10.6959 4.12994 11.1368C4.37155 11.318 4.57437 11.5459 4.72641 11.8069C4.87846 12.0678 4.97665 12.3567 5.01517 12.6562H6.15634V10.4765L4.15314 8.47193C4.07466 8.39344 4.0124 8.30027 3.96992 8.19772C3.92745 8.09517 3.90558 7.98527 3.90558 7.87427C3.90558 7.65011 3.99463 7.43512 4.15314 7.27662C4.31165 7.11811 4.52663 7.02906 4.7508 7.02906C4.97496 7.02906 5.18995 7.11811 5.34845 7.27662L7.00009 8.92966L8.65314 7.27662C8.81165 7.11811 9.02663 7.02906 9.2508 7.02906C9.47496 7.02906 9.68995 7.11811 9.84845 7.27662C10.007 7.43512 10.096 7.65011 10.096 7.87427C10.096 8.09844 10.007 8.31342 9.84845 8.47193L7.84384 10.4765V12.6562H8.98642C9.02351 12.3588 9.11983 12.0719 9.2697 11.8124C9.41958 11.5528 9.61996 11.326 9.859 11.1452C10.4579 10.7022 10.9441 10.1244 11.2781 9.4585C11.612 8.79261 11.7845 8.05741 11.7813 7.31247Z" fill="#B9FD02"/>
</svg>
