<svg width="162" height="162" viewBox="0 0 162 162" fill="none" xmlns="http://www.w3.org/2000/svg">
<path fill-rule="evenodd" clip-rule="evenodd" d="M79.035 128.596C77.8342 127.286 76.8518 125.757 75.9784 124.12C74.341 120.954 73.3585 117.461 73.1402 113.749C73.031 110.802 73.3585 107.745 74.341 104.798C75.3235 104.361 76.3059 103.925 77.2884 103.488C81.5458 101.85 86.2399 100.977 90.8248 100.977C95.5189 100.977 100.104 101.85 104.361 103.488C108.4 105.016 112.003 107.199 115.168 110.038C113.422 120.518 104.361 128.596 93.3356 128.596H79.035ZM67.5728 109.164C66.9178 109.71 66.372 110.147 65.717 110.693C62.4421 113.749 59.8221 117.352 58.0755 121.282C56.9838 123.683 56.2197 126.194 55.783 128.705H71.721C71.3935 128.159 71.066 127.613 70.7386 126.958C68.6644 123.028 67.4636 118.662 67.2453 114.186C67.3545 112.439 67.3545 110.802 67.5728 109.164ZM93.3356 84.4933H55.783V113.64C57.5297 111.02 59.4946 108.619 61.8962 106.435C64.1887 104.252 66.8086 102.396 69.6469 100.759C69.6469 100.65 69.6469 100.868 69.6469 100.759L69.9744 100.54C71.6119 99.6671 73.3585 98.7938 75.2143 98.1388C80.1267 96.283 85.4757 95.3006 90.8248 95.3006C96.1739 95.3006 101.523 96.283 106.435 98.1388C109.492 99.3396 112.439 100.868 115.168 102.724C113.313 92.4623 104.252 84.4933 93.3356 84.4933ZM55.783 37.8801H93.0081C103.16 37.8801 111.239 46.0674 111.239 56.1105C111.239 66.2628 103.051 74.341 93.0081 74.341H55.783V37.8801ZM162 81C162 125.757 125.757 162 81 162C36.2426 162 0 125.757 0 81C0 36.2426 36.2426 0 81 0C125.648 0 162 36.2426 162 81Z" fill="black" fill-opacity="0.39"/>
</svg>
