<svg width="24" height="24" viewBox="0 0 24 24" fill="none" xmlns="http://www.w3.org/2000/svg">
<path d="M10.125 22.3125C10.125 22.5611 10.0262 22.7996 9.85041 22.9754C9.6746 23.1512 9.43614 23.25 9.1875 23.25H2.625C2.12772 23.25 1.65081 23.0525 1.29917 22.7008C0.947544 22.3492 0.75 21.8723 0.75 21.375V2.625C0.75 2.12772 0.947544 1.65081 1.29917 1.29917C1.65081 0.947544 2.12772 0.75 2.625 0.75H9.1875C9.43614 0.75 9.6746 0.848772 9.85041 1.02459C10.0262 1.2004 10.125 1.43886 10.125 1.6875C10.125 1.93614 10.0262 2.1746 9.85041 2.35041C9.6746 2.52623 9.43614 2.625 9.1875 2.625H2.625V21.375H9.1875C9.43614 21.375 9.6746 21.4738 9.85041 21.6496C10.0262 21.8254 10.125 22.0639 10.125 22.3125ZM22.9758 11.3367L18.2883 6.64922C18.1124 6.47331 17.8738 6.37448 17.625 6.37448C17.3762 6.37448 17.1376 6.47331 16.9617 6.64922C16.7858 6.82513 16.687 7.06372 16.687 7.3125C16.687 7.56128 16.7858 7.79987 16.9617 7.97578L20.0496 11.0625H9.1875C8.93886 11.0625 8.7004 11.1613 8.52459 11.3371C8.34877 11.5129 8.25 11.7514 8.25 12C8.25 12.2486 8.34877 12.4871 8.52459 12.6629C8.7004 12.8387 8.93886 12.9375 9.1875 12.9375H20.0496L16.9617 16.0242C16.7858 16.2001 16.687 16.4387 16.687 16.6875C16.687 16.9363 16.7858 17.1749 16.9617 17.3508C17.1376 17.5267 17.3762 17.6255 17.625 17.6255C17.8738 17.6255 18.1124 17.5267 18.2883 17.3508L22.9758 12.6633C23.0629 12.5762 23.1321 12.4728 23.1793 12.359C23.2265 12.2452 23.2507 12.1232 23.2507 12C23.2507 11.8768 23.2265 11.7548 23.1793 11.641C23.1321 11.5272 23.0629 11.4238 22.9758 11.3367Z" fill="#85F618"/>
</svg>
