<svg width="19" height="23" viewBox="0 0 19 23" fill="none" xmlns="http://www.w3.org/2000/svg">
<path d="M9.5 5.125C8.65016 5.125 7.8194 5.36693 7.11278 5.82019C6.40617 6.27345 5.85543 6.91768 5.53021 7.67143C5.20499 8.42518 5.11989 9.25458 5.28569 10.0547C5.45148 10.8549 5.86072 11.5899 6.46165 12.1668C7.06258 12.7437 7.82821 13.1366 8.66172 13.2957C9.49523 13.4549 10.3592 13.3732 11.1443 13.061C11.9295 12.7488 12.6006 12.2201 13.0727 11.5417C13.5449 10.8634 13.7969 10.0658 13.7969 9.25C13.7956 8.15636 13.3425 7.10787 12.5369 6.33455C11.7314 5.56124 10.6392 5.12624 9.5 5.125ZM9.5 11.125C9.11371 11.125 8.73609 11.015 8.4149 10.809C8.09371 10.603 7.84338 10.3101 7.69555 9.96753C7.54772 9.62492 7.50904 9.24792 7.5844 8.8842C7.65977 8.52049 7.84578 8.1864 8.11893 7.92417C8.39208 7.66195 8.74009 7.48337 9.11896 7.41103C9.49783 7.33868 9.89054 7.37581 10.2474 7.51773C10.6043 7.65964 10.9094 7.89996 11.124 8.20831C11.3386 8.51665 11.4531 8.87916 11.4531 9.25C11.4531 9.74728 11.2473 10.2242 10.8811 10.5758C10.5148 10.9275 10.018 11.125 9.5 11.125ZM9.5 0.625C7.11799 0.627482 4.83428 1.53698 3.14994 3.15394C1.46561 4.77091 0.51821 6.96327 0.515625 9.25C0.515625 16.5025 8.48828 21.9437 8.82813 22.1716C9.02507 22.3039 9.25963 22.3748 9.5 22.3748C9.74037 22.3748 9.97493 22.3039 10.1719 22.1716C11.6819 21.1032 13.0634 19.8769 14.291 18.5153C17.0342 15.4909 18.4844 12.2847 18.4844 9.25C18.4818 6.96327 17.5344 4.77091 15.8501 3.15394C14.1657 1.53698 11.882 0.627482 9.5 0.625ZM12.5566 17.0041C11.6255 18.0308 10.6028 18.9776 9.5 19.8334C8.39725 18.9776 7.37448 18.0308 6.44336 17.0041C4.8125 15.1909 2.85938 12.3728 2.85938 9.25C2.85938 7.55924 3.55901 5.93774 4.80437 4.74219C6.04973 3.54665 7.7388 2.875 9.5 2.875C11.2612 2.875 12.9503 3.54665 14.1956 4.74219C15.441 5.93774 16.1406 7.55924 16.1406 9.25C16.1406 12.3728 14.1875 15.1909 12.5566 17.0041Z" fill="#040404"/>
</svg>
