<svg width="22" height="22" viewBox="0 0 22 22" fill="none" xmlns="http://www.w3.org/2000/svg">
<path fill-rule="evenodd" clip-rule="evenodd" d="M10.0834 3.66671C6.53955 3.66671 3.66671 6.53955 3.66671 10.0834C3.66671 13.6272 6.53955 16.5 10.0834 16.5C13.6272 16.5 16.5 13.6272 16.5 10.0834C16.5 6.53955 13.6272 3.66671 10.0834 3.66671ZM1.83337 10.0834C1.83337 5.52702 5.52702 1.83337 10.0834 1.83337C14.6397 1.83337 18.3334 5.52702 18.3334 10.0834C18.3334 14.6397 14.6397 18.3334 10.0834 18.3334C5.52702 18.3334 1.83337 14.6397 1.83337 10.0834Z" fill="white"/>
<path fill-rule="evenodd" clip-rule="evenodd" d="M14.6143 14.6143C14.9723 14.2563 15.5527 14.2563 15.9107 14.6143L19.8982 18.6018C20.2562 18.9598 20.2562 19.5402 19.8982 19.8982C19.5402 20.2562 18.9598 20.2562 18.6018 19.8982L14.6143 15.9107C14.2563 15.5527 14.2563 14.9723 14.6143 14.6143Z" fill="white"/>
</svg>
