<svg width="19" height="17" viewBox="0 0 19 17" fill="none" xmlns="http://www.w3.org/2000/svg">
<path d="M5.04688 15.5156C5.04688 15.7505 4.97723 15.9801 4.84675 16.1754C4.71626 16.3707 4.5308 16.5229 4.31381 16.6127C4.09682 16.7026 3.85806 16.7261 3.62771 16.6803C3.39735 16.6345 3.18576 16.5214 3.01969 16.3553C2.85361 16.1892 2.74051 15.9777 2.69469 15.7473C2.64887 15.5169 2.67239 15.2782 2.76227 15.0612C2.85215 14.8442 3.00435 14.6587 3.19964 14.5283C3.39492 14.3978 3.62451 14.3281 3.85938 14.3281C4.17432 14.3281 4.47637 14.4532 4.69906 14.6759C4.92176 14.8986 5.04688 15.2007 5.04688 15.5156ZM6.23438 11.9531C5.99951 11.9531 5.76992 12.0228 5.57464 12.1533C5.37935 12.2837 5.22715 12.4692 5.13727 12.6862C5.04739 12.9032 5.02387 13.1419 5.06969 13.3723C5.11551 13.6027 5.22861 13.8142 5.39469 13.9803C5.56076 14.1464 5.77235 14.2595 6.00271 14.3053C6.23306 14.3511 6.47182 14.3276 6.68881 14.2377C6.9058 14.1479 7.09126 13.9957 7.22175 13.8004C7.35223 13.6051 7.42188 13.3755 7.42188 13.1406C7.42188 12.8257 7.29676 12.5236 7.07406 12.3009C6.85137 12.0782 6.54932 11.9531 6.23438 11.9531ZM1.48438 11.9531C1.24951 11.9531 1.01992 12.0228 0.824636 12.1533C0.629352 12.2837 0.477148 12.4692 0.387269 12.6862C0.29739 12.9032 0.273873 13.1419 0.319693 13.3723C0.365513 13.6027 0.478611 13.8142 0.644686 13.9803C0.810761 14.1464 1.02235 14.2595 1.25271 14.3053C1.48306 14.3511 1.72182 14.3276 1.93881 14.2377C2.1558 14.1479 2.34126 13.9957 2.47175 13.8004C2.60223 13.6051 2.67188 13.3755 2.67188 13.1406C2.67188 12.8257 2.54676 12.5236 2.32406 12.3009C2.10137 12.0782 1.79932 11.9531 1.48438 11.9531ZM3.85938 11.9531C4.09424 11.9531 4.32383 11.8835 4.51911 11.753C4.7144 11.6225 4.8666 11.4371 4.95648 11.2201C5.04636 11.0031 5.06988 10.7643 5.02406 10.534C4.97824 10.3036 4.86514 10.092 4.69906 9.92594C4.53299 9.75987 4.3214 9.64677 4.09105 9.60095C3.86069 9.55513 3.62193 9.57864 3.40494 9.66852C3.18795 9.7584 3.00249 9.91061 2.87201 10.1059C2.74152 10.3012 2.67188 10.5308 2.67188 10.7656C2.67188 11.0806 2.79699 11.3826 3.01969 11.6053C3.24239 11.828 3.54443 11.9531 3.85938 11.9531ZM19 0.968755C19 1.20496 18.9062 1.4315 18.7391 1.59852C18.5721 1.76555 18.3456 1.85938 18.1094 1.85938H16.4023L14.4868 3.77348L12.8948 13.0909C12.8492 13.3594 12.7307 13.6103 12.5521 13.816C12.3736 14.0216 12.1418 14.1742 11.8823 14.257C11.6228 14.3397 11.3456 14.3495 11.0809 14.2852C10.8162 14.2209 10.5743 14.0851 10.3817 13.8925L3.10828 6.61903C2.91523 6.42627 2.77904 6.18404 2.71466 5.91894C2.65028 5.65384 2.6602 5.37612 2.74333 5.11629C2.82647 4.85646 2.9796 4.62456 3.18591 4.44607C3.39222 4.26758 3.64373 4.1494 3.91281 4.1045L13.2273 2.51325L15.2275 0.513052C15.3649 0.374743 15.5285 0.265084 15.7086 0.190428C15.8887 0.115772 16.0819 0.0776024 16.2769 0.0781304H18.1094C18.3456 0.0781304 18.5721 0.171964 18.7391 0.338988C18.9062 0.506013 19 0.732547 19 0.968755ZM12.5667 4.43329L4.77375 5.76477L11.236 12.227L12.5667 4.43329Z" fill="#B9FD02"/>
</svg>
