<svg width="16" height="17" viewBox="0 0 16 17" fill="none" xmlns="http://www.w3.org/2000/svg">
<path d="M14.1875 3.375H1.8125C1.58872 3.375 1.37411 3.46389 1.21588 3.62213C1.05764 3.78036 0.96875 3.99497 0.96875 4.21875C0.96875 4.44253 1.05764 4.65714 1.21588 4.81537C1.37411 4.97361 1.58872 5.0625 1.8125 5.0625H2.09375V14.625C2.09375 14.998 2.24191 15.3556 2.50563 15.6194C2.76935 15.8831 3.12704 16.0312 3.5 16.0312H12.5C12.873 16.0312 13.2306 15.8831 13.4944 15.6194C13.7581 15.3556 13.9062 14.998 13.9062 14.625V5.0625H14.1875C14.4113 5.0625 14.6259 4.97361 14.7841 4.81537C14.9424 4.65714 15.0312 4.44253 15.0312 4.21875C15.0312 3.99497 14.9424 3.78036 14.7841 3.62213C14.6259 3.46389 14.4113 3.375 14.1875 3.375ZM12.2188 14.3438H3.78125V5.0625H12.2188V14.3438ZM4.34375 1.40625C4.34375 1.18247 4.43264 0.967862 4.59088 0.809629C4.74911 0.651395 4.96372 0.5625 5.1875 0.5625H10.8125C11.0363 0.5625 11.2509 0.651395 11.4091 0.809629C11.5674 0.967862 11.6562 1.18247 11.6562 1.40625C11.6562 1.63003 11.5674 1.84464 11.4091 2.00287C11.2509 2.16111 11.0363 2.25 10.8125 2.25H5.1875C4.96372 2.25 4.74911 2.16111 4.59088 2.00287C4.43264 1.84464 4.34375 1.63003 4.34375 1.40625Z" fill="white"/>
</svg>
