<svg width="23" height="23" viewBox="0 0 23 23" fill="none" xmlns="http://www.w3.org/2000/svg">
<path fill-rule="evenodd" clip-rule="evenodd" d="M4.59243 14.6757C5.45197 13.8162 6.61776 13.3333 7.83333 13.3333H15.1667C16.3822 13.3333 17.548 13.8162 18.4076 14.6757C19.2671 15.5353 19.75 16.7011 19.75 17.9166V19.75C19.75 20.2562 19.3396 20.6666 18.8333 20.6666C18.3271 20.6666 17.9167 20.2562 17.9167 19.75V17.9166C17.9167 17.1873 17.6269 16.4878 17.1112 15.9721C16.5955 15.4564 15.896 15.1666 15.1667 15.1666H7.83333C7.10399 15.1666 6.40452 15.4564 5.88879 15.9721C5.37306 16.4878 5.08333 17.1873 5.08333 17.9166V19.75C5.08333 20.2562 4.67293 20.6666 4.16667 20.6666C3.66041 20.6666 3.25 20.2562 3.25 19.75V17.9166C3.25 16.7011 3.73289 15.5353 4.59243 14.6757Z" fill="#040404"/>
<path fill-rule="evenodd" clip-rule="evenodd" d="M3.25 19.64C3.25 19.0325 3.74249 18.54 4.35 18.54H18.65C19.2575 18.54 19.75 19.0325 19.75 19.64C19.75 20.2475 19.2575 20.74 18.65 20.74H4.35C3.74249 20.74 3.25 20.2475 3.25 19.64Z" fill="#040404"/>
<path fill-rule="evenodd" clip-rule="evenodd" d="M11.5001 4.16665C9.9813 4.16665 8.75008 5.39786 8.75008 6.91665C8.75008 8.43543 9.9813 9.66665 11.5001 9.66665C13.0189 9.66665 14.2501 8.43543 14.2501 6.91665C14.2501 5.39786 13.0189 4.16665 11.5001 4.16665ZM6.91675 6.91665C6.91675 4.38534 8.96878 2.33331 11.5001 2.33331C14.0314 2.33331 16.0834 4.38534 16.0834 6.91665C16.0834 9.44795 14.0314 11.5 11.5001 11.5C8.96878 11.5 6.91675 9.44795 6.91675 6.91665Z" fill="#040404"/>
</svg>
